<svg width="512" height="512" viewBox="0 0 512 512" fill="none" xmlns="http://www.w3.org/2000/svg">
<rect width="512" height="512" rx="36" fill="#1E293B"/>
<path d="M98.8224 273.839V258.703L170.72 225.487V244.145L119.635 266.061L120.213 265.062V267.48L119.635 266.482L170.72 288.398V307.055L98.8224 273.839ZM238.295 196.318L203.608 325.188H186.947L221.635 196.318H238.295ZM309.772 230.953C309.282 226.363 307.215 222.789 303.571 220.232C299.962 217.674 295.267 216.395 289.485 216.395C285.421 216.395 281.935 217.008 279.027 218.234C276.118 219.461 273.894 221.125 272.352 223.227C270.81 225.33 270.022 227.73 269.987 230.428C269.987 232.67 270.495 234.615 271.511 236.261C272.562 237.908 273.981 239.31 275.768 240.466C277.555 241.587 279.535 242.533 281.707 243.304C283.879 244.075 286.069 244.723 288.277 245.249L298.368 247.771C302.432 248.717 306.339 249.996 310.088 251.608C313.872 253.22 317.253 255.252 320.231 257.705C323.244 260.157 325.627 263.118 327.379 266.587C329.131 270.055 330.007 274.12 330.007 278.78C330.007 285.087 328.395 290.64 325.172 295.44C321.948 300.205 317.288 303.937 311.191 306.635C305.13 309.298 297.789 310.629 289.17 310.629C280.796 310.629 273.526 309.333 267.359 306.74C261.227 304.147 256.427 300.363 252.958 295.388C249.525 290.412 247.668 284.351 247.387 277.203H266.571C266.851 280.952 268.007 284.071 270.039 286.558C272.072 289.046 274.717 290.903 277.975 292.129C281.269 293.356 284.948 293.969 289.012 293.969C293.252 293.969 296.966 293.338 300.154 292.077C303.378 290.78 305.901 288.993 307.723 286.716C309.545 284.403 310.473 281.705 310.508 278.622C310.473 275.819 309.65 273.507 308.038 271.685C306.426 269.828 304.166 268.286 301.258 267.06C298.385 265.798 295.021 264.677 291.167 263.696L278.922 260.543C270.057 258.265 263.049 254.814 257.899 250.189C252.783 245.529 250.225 239.345 250.225 231.636C250.225 225.295 251.942 219.741 255.376 214.976C258.845 210.211 263.557 206.514 269.514 203.886C275.47 201.223 282.215 199.892 289.748 199.892C297.386 199.892 304.079 201.223 309.825 203.886C315.606 206.514 320.144 210.176 323.437 214.871C326.731 219.531 328.43 224.892 328.535 230.953H309.772ZM422.494 263.749L350.596 296.964V278.307L401.681 256.391L401.103 257.389V254.972L401.681 255.97L350.596 234.054V215.396L422.494 248.612V263.749Z" fill="#E2E8F0"/>
</svg>
